<svg width="260" height="245" viewBox="0 0 260 245" fill="none" xmlns="http://www.w3.org/2000/svg">
  <!-- Outer circles -->
  <circle cx="130" cy="122.5" r="115" stroke="#3de6cf" stroke-width="6"/>
  <path d="M220 60A100 100 0 1 1 41 170" stroke="#3de6cf" stroke-width="6" fill="none"/>
  <!-- Medical cross -->
  <rect x="188" y="27" width="38" height="38" fill="#3de6cf" rx="5"/>
  <rect x="201" y="14" width="12" height="64" fill="#3de6cf"/>
  <rect x="175" y="40" width="64" height="12" fill="#3de6cf"/>
  <!-- Brain outline (stylized) -->
  <path d="
    M65 120
    Q58 95 83 85
    Q93 65 115 73
    Q120 45 155 54
    Q189 61 181 110
    Q202 127 183 146
    Q177 175 143 168
    Q138 192 124 179
    Q99 180 104 157
    Q75 154 90 134
    Q75 129 65 120
  " stroke="#111" stroke-width="6" fill="none"/>
  <!-- Brain squiggle marks -->
  <path d="M105 115 Q108 109 117 112" stroke="#111" stroke-width="3" fill="none"/>
  <path d="M135 90 Q138 85 143 92" stroke="#111" stroke-width="3" fill="none"/>
  <path d="M120 140 Q125 136 130 142" stroke="#111" stroke-width="3" fill="none"/>
  <path d="M150 130 Q156 126 160 132" stroke="#111" stroke-width="3" fill="none"/>
  <!-- Text: Fitness sphere (skewed) -->
  <g transform="matrix(1, -0.2, 0.2, 1, 30, 200)">
    <text x="20" y="20" font-family="Arial, Helvetica, sans-serif" font-size="24" font-weight="bold" fill="#3de6cf" stroke="#2ac8a8" stroke-width="1.2">Fitness sphere</text>
  </g>
</svg>
